<svg xmlns="http://www.w3.org/2000/svg" width="236" height="236">
    <path fill="#14B371" fill-rule="evenodd" d="M118.345.003c64.929 0 117.565 52.712 117.565 117.735s-52.636 117.734-117.565 117.734C53.418 235.472.783 182.761.783 117.738S53.418.003 118.345.003z"/>
    <path fill="#F6F6F8" fill-rule="evenodd" d="M168.31 95.397l-59.213 59.213c-3.199 3.199-8.386 3.199-11.585 0l-29.606-29.607c-3.199-3.199-3.199-8.386 0-11.585 3.199-3.199 8.386-3.199 11.585 0l23.814 23.814 53.42-53.421c3.199-3.199 8.386-3.199 11.585 0 3.2 3.2 3.2 8.386 0 11.586z"/>
</svg>
